#!OML:ASF I:\salsa\salsa 7_09\Patient 1\Session 1\dancerfemale.ASF
:FULLY-SPECIFIED
:DEGREES
1574
root 19.4674 15.8162 -2.15421 -1164.02 267.488 91.0598
lowerback 6.14582 4.75906 0.5441
upperback -6.47807 6.55098 1.82739
thorax -10.5207 3.16828 0.662723
lowerneck -2.85217 -4.67098 -10.2014
upperneck 3.00837 -6.10338 7.68768
head 1.90458 -3.01863 3.78081
rclavicle 1.67228e-014 9.54166e-015
rhumerus -39.4421 10.1258 -95.0589
rradius 64.5331
rwrist 1.87556
rhand 2.66813 777.726
rfingers 7.12502
rthumb 28.1434 29.8184
lclavicle 1.67228e-014 9.54166e-015
lhumerus -38.8605 17.2406 63.7314
lradius 108.626
lwrist -23.7676
lhand -19.2428 35.3083
lfingers 7.12502
lthumb 7.07075 65.1702
rfemur -3.90321 -9.11516 23.333
rtibia 42.997
rfoot 13.9629 2.30537
rtoes -17.5626
lfemur -34.1522 -0.149545 -23.6459
ltibia 41.9849
lfoot -21.1846 7.93344
ltoes -9.19439
1575
root 19.2984 15.8086 -2.12312 -1208.96 267.178 135.991
lowerback 6.38721 4.70361 0.546335
upperback -6.65971 6.45091 1.39991
thorax -10.8116 3.09632 0.193671
lowerneck -2.60517 -5.33138 -10.8
upperneck 2.96987 -7.01435 8.26188
head 1.9769 -3.47364 4.01753
rclavicle -4.6118e-014 -5.96354e-015
rhumerus -42.2636 9.77259 -94.0386
rradius 61.9763
rwrist 1.22685
rhand 3.92151 777.208
rfingers 7.12502
rthumb 29.3408 29.5031
lclavicle -4.6118e-014 -5.96354e-015
lhumerus -35.4252 15.4901 67.2401
lradius 109.519
lwrist -23.1699
lhand -19.8089 35.5289
lfingers 7.12502
lthumb 6.52433 65.4084
rfemur -8.06763 -11.1644 22.9416
rtibia 49.7913
rfoot 17.1967 0.252824
rtoes -14.3998
lfemur -33.1893 -0.285683 -24.6258
ltibia 41.2186
lfoot -21.5353 7.0532
ltoes -10.1251
1576
root 19.1321 15.7794 -2.09302 -1257.77 266.23 184.253
lowerback 7.26491 4.65527 -1.05612
upperback -6.59231 6.13058 0.490573
thorax -11.3318 3.02096 0.0784567
lowerneck -2.39028 -5.94513 -11.2957
upperneck 2.97201 -7.86442 8.726
head 2.06257 -3.89915 4.20276
rclavicle 9.75536e-014 1.47101e-014
rhumerus -44.7991 9.24573 -93.1443
rradius 59.3603
rwrist 1.06885
rhand 5.0428 776.491
rfingers 7.12502
rthumb 30.4108 28.9784
lclavicle 9.75536e-014 1.47101e-014
lhumerus -32.0212 13.3398 70.6284
lradius 110.43
lwrist -22.7684
lhand -20.8458 35.637
lfingers 7.12502
lthumb 5.52326 65.545
rfemur -11.7446 -13.4564 20.3689
rtibia 56.5486
rfoot 18.6235 -1.29231
rtoes -17.1168
lfemur -31.2721 -0.197672 -27.507
ltibia 40.1434
lfoot -21.7608 6.14027
ltoes -10.2355
1577
root 18.9658 15.7503 -2.05959 -1281.65 263.776 207.436
lowerback 8.27934 4.66507 -2.86093
upperback -6.39793 5.78619 -0.609607
thorax -11.7949 2.93927 -0.129595
lowerneck -1.88253 -6.53369 -11.5647
upperneck 2.69976 -8.70939 9.17131
head 2.01621 -4.32604 4.35806
rclavicle -9.87711e-014 -1.86858e-014
rhumerus -47.1945 8.19221 -92.2433
rradius 56.9351
rwrist 1.31745
rhand 6.03354 775.348
rfingers 7.12502
rthumb 31.3553 28.0151
lclavicle -9.87711e-014 -1.86858e-014
lhumerus -28.4978 10.6945 73.9336
lradius 111.295
lwrist -22.8589
lhand -20.8462 35.2342
lfingers 7.12502
lthumb 5.5228 65.1422
rfemur -15.1499 -15.4665 17.3489
rtibia 62.6787
rfoot 17.3747 -2.89003
rtoes -15.0328
lfemur -28.8876 -0.130176 -30.7232
ltibia 38.7553
lfoot -21.6697 5.12464
ltoes -10.7996
1578
root 18.7991 15.7324 -2.01862 -1290.41 260.853 215.318
lowerback 9.5098 4.67359 -4.33601
upperback -6.09783 5.41902 -1.68627
thorax -12.237 2.81622 -0.501558
lowerneck -1.19816 -7.12085 -11.5789
upperneck 2.29316 -9.56493 9.44583
head 1.88798 -4.76353 4.43077
rclavicle -1.38901e-014 -1.68967e-015
rhumerus -49.6451 6.83322 -91.1539
rradius 54.8174
rwrist 1.94881
rhand 6.29227 775.23
rfingers 7.12502
rthumb 31.6018 27.9445
lclavicle -1.38901e-014 -1.68967e-015
lhumerus -25.1308 7.74793 77.2132
lradius 112.202
lwrist -23.0248
lhand -19.7478 34.5815
lfingers 7.12502
lthumb 6.58332 64.4592
rfemur -18.0848 -17.6408 14.2429
rtibia 67.7984
rfoot 14.3302 -3.03311
rtoes -10.6899
lfemur -26.1412 -0.276867 -33.6619
ltibia 37.2566
lfoot -21.4738 4.0578
ltoes -11.0646
1579
root 18.6384 15.703 -1.9905 -1291.8 258.64 216.045
lowerback 10.4938 4.59014 -4.97818
upperback -5.80586 5.06838 -2.402
thorax -12.4864 2.65355 -0.919243
lowerneck -0.716128 -7.58483 -11.799
upperneck 1.96477 -10.2347 9.80856
head 1.8139 -5.10586 4.56441
rclavicle -1.81826e-014 1.21756e-014
rhumerus -51.9622 5.53914 -89.8192
rradius 53.0542
rwrist 3.37473
rhand 7.865 774.157
rfingers 7.12502
rthumb 33.0987 27.1772
lclavicle -1.81826e-014 1.21756e-014
lhumerus -22.1336 4.96671 80.3459
lradius 113.104
lwrist -23.0938
lhand -18.5556 33.8588
lfingers 7.12502
lthumb 7.73405 63.6974
rfemur -21.2896 -18.9574 12.4972
rtibia 71.7253
rfoot 10.6559 -2.97713
rtoes -12.6553
lfemur -23.9527 -0.240091 -35.3737
ltibia 36.0248
lfoot -21.2803 2.90132
ltoes -10.933
1580
root 18.4735 15.6845 -1.9711 -1289.76 256.634 213.47
lowerback 11.1975 4.25332 -4.92436
upperback -5.44851 4.5254 -2.91877
thorax -12.4342 2.35795 -1.42495
lowerneck -0.336426 -7.90306 -12.2051
upperneck 1.53199 -10.6991 10.4353
head 1.73195 -5.34323 4.81567
rclavicle -8.40797e-015 2.5345e-015
rhumerus -54.1933 4.02473 -88.2457
rradius 51.9255
rwrist 5.07445
rhand 8.39271 773.962
rfingers 7.12502
rthumb 33.6003 27.0901
lclavicle -8.40797e-015 2.5345e-015
lhumerus -19.4695 2.19046 83.386
lradius 113.859
lwrist -23.3049
lhand -18.0956 32.8943
lfingers 7.12502
lthumb 8.17803 62.716
rfemur -24.3388 -19.6604 11.7919
rtibia 74.2914
rfoot 7.45326 -2.58585
rtoes -12.9867
lfemur -22.0766 -0.188595 -36.207
ltibia 35.0961
lfoot -21.1334 1.39972
ltoes -10.5049
